<svg width="16" height="16" viewBox="0 0 16 16" fill="none" xmlns="http://www.w3.org/2000/svg">
<path d="M12.5627 5.25C12.4712 6.52094 11.5284 7.5 10.5002 7.5C9.47211 7.5 8.52774 6.52125 8.43774 5.25C8.34399 3.92781 9.2618 3 10.5002 3C11.7387 3 12.6565 3.95187 12.5627 5.25Z" stroke="#605DEC" stroke-linecap="round" stroke-linejoin="round"/>
<path d="M10.4999 9.5C8.46331 9.5 6.50488 10.5116 6.01425 12.4816C5.94925 12.7422 6.11269 13 6.3805 13H14.6196C14.8874 13 15.0499 12.7422 14.9858 12.4816C14.4952 10.48 12.5368 9.5 10.4999 9.5Z" stroke="#605DEC" stroke-miterlimit="10"/>
<path d="M6.24981 5.81063C6.17669 6.82563 5.41481 7.625 4.59356 7.625C3.77231 7.625 3.00919 6.82594 2.93731 5.81063C2.86262 4.75469 3.60419 4 4.59356 4C5.58294 4 6.3245 4.77406 6.24981 5.81063Z" stroke="#605DEC" stroke-linecap="round" stroke-linejoin="round"/>
<path d="M6.43732 9.56252C5.87326 9.30409 5.25201 9.20471 4.59357 9.20471C2.96857 9.20471 1.40294 10.0125 1.01075 11.586C0.959192 11.7941 1.08982 12 1.30357 12H4.81232" stroke="#605DEC" stroke-miterlimit="10" stroke-linecap="round"/>
</svg>
