<svg width="147" height="146" viewBox="0 0 147 146" fill="none" xmlns="http://www.w3.org/2000/svg">
<g clip-path="url(#clip0_5194_10715)">
<rect x="0.5" width="146" height="146" rx="73" fill="#605DEC"/>
<path d="M37.0199 31.1362L38.1968 34.3166L41.3772 35.4935L38.1968 36.6704L37.0199 39.8508L35.8431 36.6704L32.6627 35.4935L35.8431 34.3166L37.0199 31.1362Z" fill="white"/>
<path d="M42.5272 25.8628L43.3658 28.129L45.632 28.9676L43.3658 29.8062L42.5272 32.0725L41.6886 29.8062L39.4224 28.9676L41.6886 28.129L42.5272 25.8628Z" fill="white"/>
<path d="M94.6 7.86182L95.4386 10.1281L97.7048 10.9666L95.4386 11.8052L94.6 14.0715L93.7614 11.8052L91.4952 10.9666L93.7614 10.1281L94.6 7.86182Z" fill="white"/>
<path d="M94.6 21.1848L95.4386 23.4511L97.7048 24.2896L95.4386 25.1282L94.6 27.3945L93.7614 25.1282L91.4952 24.2896L93.7614 23.4511L94.6 21.1848Z" fill="white"/>
<path d="M116.327 62.1228L117.166 64.389L119.432 65.2276L117.166 66.0662L116.327 68.3325L115.489 66.0662L113.222 65.2276L115.489 64.389L116.327 62.1228Z" fill="white"/>
<path d="M48.7381 56.0356L49.5767 58.3019L51.8429 59.1405L49.5767 59.9791L48.7381 62.2453L47.8995 59.9791L45.6332 59.1405L47.8995 58.3019L48.7381 56.0356Z" fill="white"/>
<path d="M101.87 38.9714L102.259 40.0237L103.312 40.4131L102.259 40.8025L101.87 41.8548L101.481 40.8025L100.428 40.4131L101.481 40.0237L101.87 38.9714Z" fill="white"/>
<path d="M84.7245 15.5681L85.1139 16.6204L86.1662 17.0098L85.1139 17.3992L84.7245 18.4515L84.3351 17.3992L83.2828 17.0098L84.3351 16.6204L84.7245 15.5681Z" fill="white"/>
<path d="M55.797 107.447C56.9097 105.404 61.9428 104.237 67.6033 103.966C63.5824 83.8693 62.2727 66.6429 65.1982 52.0127C61.8938 52.8947 58.868 54.7278 56.5778 57.5324C53.0128 68.4684 52.4101 81.9611 54.5694 99.0727C54.8528 101.319 55.1838 103.627 55.5619 106C55.6383 106.479 55.7167 106.962 55.797 107.447Z" fill="#B36FE0"/>
<path d="M70.7986 35.7634C64.1188 41.7595 59.4121 48.8379 56.5778 57.5324C58.868 54.7278 61.8938 52.8947 65.1982 52.0127C66.3624 46.1909 68.1972 40.7803 70.7986 35.7634Z" fill="#7738A1"/>
<path d="M79.1426 96.8446V76.8748C79.1426 76.1647 81.6604 75.2657 83.1212 76.6046L87.8748 80.8301C87.7836 71.5125 86.5023 63.962 84.3029 57.5324C79.1288 52.1852 71.6349 50.2947 65.1982 52.0127C62.2727 66.6429 63.5824 83.8693 67.6033 103.966C69.1531 103.891 70.75 103.884 72.3263 103.945C78.1896 104.17 83.7686 105.33 85.5852 107.447C86.6719 100.678 87.3527 94.5679 87.6696 89.018L80.6515 97.7322L79.1426 96.8446Z" fill="#D18BFF"/>
<path d="M84.3029 57.5324C81.2908 48.7269 76.5565 42.0238 70.7986 35.7634C68.1972 40.7803 66.3624 46.1909 65.1982 52.0127C71.6349 50.2947 79.1288 52.1852 84.3029 57.5324Z" fill="#B36FE0"/>
<path d="M79.1426 76.8748V96.8446L87.848 84.6208C87.8781 83.3253 87.8869 82.0623 87.8748 80.8301L83.1212 76.6046C81.6604 75.2657 79.1426 76.1647 79.1426 76.8748Z" fill="#DAA2FF"/>
<path d="M79.1426 96.8446L80.6515 97.7322L87.6696 89.018C87.7556 87.5117 87.8147 86.0466 87.848 84.6208L79.1426 96.8446Z" fill="#591C81"/>
<path d="M91.302 84.5077L89.5115 82.2849L87.848 84.6208C87.8147 86.0466 87.7556 87.5117 87.6696 89.018L91.302 84.5077Z" fill="#591C81"/>
<path d="M89.5115 82.2849L87.8748 80.8301C87.8869 82.0623 87.8781 83.3253 87.848 84.6208L89.5115 82.2849Z" fill="#DAA2FF"/>
<path d="M85.5852 107.447C83.7686 105.33 78.1896 104.17 72.3263 103.945C74.7394 104.989 75.1927 105.534 75.4458 106.412C78.1438 106.907 79.9485 107.809 79.9485 108.84C79.9485 109.813 78.3411 110.671 75.8925 111.181C79.1156 110.574 82.3947 109.377 85.5852 107.447Z" fill="#B36FE0"/>
<path fill-rule="evenodd" clip-rule="evenodd" d="M75.0902 106.35C75.0982 106.351 75.1062 106.352 75.1142 106.354C75.2262 106.372 75.3368 106.392 75.4458 106.412C75.1927 105.534 74.7394 104.989 72.3263 103.945C70.75 103.884 69.1531 103.891 67.6033 103.966C61.9428 104.237 56.9097 105.404 55.797 107.447" fill="#B36FE0"/>
<path d="M67.6033 103.966C61.9428 104.237 56.9097 105.404 55.797 107.447C58.7973 109.388 62.5816 110.84 66.7524 111.41C63.5807 110.959 61.382 109.978 61.382 108.84C61.382 107.276 65.5383 106.008 70.6653 106.008C72.2674 106.008 73.7748 106.132 75.0902 106.35L75.1142 106.354C75.2262 106.372 75.3368 106.392 75.4458 106.412C75.1927 105.534 74.7394 104.989 72.3263 103.945C70.75 103.884 69.1531 103.891 67.6033 103.966Z" fill="#7738A1"/>
<path d="M70.6653 106.008C65.5383 106.008 61.382 107.276 61.382 108.84C61.382 109.978 63.5807 110.959 66.7524 111.41C67.6407 111.531 68.5465 111.612 69.4661 111.649C69.7459 111.66 70.0296 111.667 70.3166 111.671C66.4602 111.619 63.3807 110.538 63.3807 109.212C63.3807 108.852 63.6072 108.51 64.0144 108.202C65.1459 107.346 67.6725 106.75 70.6078 106.75C73.543 106.75 76.0696 107.346 77.2011 108.202C77.6083 108.51 77.8348 108.852 77.8348 109.212C77.8348 110.557 74.6629 111.651 70.726 111.673C70.7064 111.673 70.6867 111.673 70.6671 111.673C70.656 111.673 70.645 111.673 70.6339 111.673C70.6444 111.673 70.6548 111.673 70.6653 111.673C70.6855 111.673 70.7058 111.673 70.726 111.673C72.4165 111.667 74.1463 111.511 75.8925 111.181C78.3411 110.671 79.9485 109.813 79.9485 108.84C79.9485 107.809 78.1438 106.907 75.4458 106.412C75.3368 106.392 75.2262 106.372 75.1142 106.354L75.0902 106.35C73.7748 106.132 72.2674 106.008 70.6653 106.008Z" fill="#D18BFF"/>
<path d="M70.6078 106.75C67.6725 106.75 65.1459 107.346 64.0144 108.202C67.0328 109.597 73.9438 109.67 77.2011 108.202C76.0696 107.346 73.543 106.75 70.6078 106.75Z" fill="#3B0062"/>
<path d="M64.0144 108.202C63.6072 108.51 63.3807 108.852 63.3807 109.212C63.3807 110.538 66.4602 111.619 70.3166 111.671C70.422 111.672 70.5277 111.673 70.6339 111.673C70.645 111.673 70.656 111.673 70.6671 111.673L70.726 111.673C74.6629 111.651 77.8348 110.557 77.8348 109.212C77.8348 108.852 77.6083 108.51 77.2011 108.202C73.9438 109.67 67.0328 109.597 64.0144 108.202Z" fill="#E3B9FF"/>
<path d="M87.612 171.35H62.9296C54.9002 146.761 64.3443 132.356 64.3451 108.261C68.9474 109.614 71.5217 109.617 76.1048 108.623C76.2029 108.697 76.9194 109.036 76.9816 110.259C78.4587 139.259 76.9972 155.765 87.612 171.35Z" fill="#FDEBAB"/>
<path d="M65.7664 66.5867C65.7664 70.7577 63.6982 74.1389 61.147 74.1389C58.5958 74.1389 56.5276 70.7577 56.5276 66.5867C56.5276 62.4157 58.5958 59.0345 61.147 59.0345C63.6982 59.0345 65.7664 62.4157 65.7664 66.5867Z" fill="#FEFAEA"/>
<path fill-rule="evenodd" clip-rule="evenodd" d="M67.6015 66.5867C67.6015 60.7595 64.7121 56.0356 61.1478 56.0356C57.5836 56.0356 54.6942 60.7595 54.6942 66.5867H56.5276C56.5276 62.4157 58.5958 59.0345 61.147 59.0345C63.6982 59.0345 65.7664 62.4157 65.7664 66.5867H67.6015Z" fill="#B36FE0"/>
<path d="M61.1478 77.1378C64.7121 77.1378 67.6015 72.4139 67.6015 66.5867H65.7664C65.7664 70.7577 63.6982 74.1389 61.147 74.1389C58.5958 74.1389 56.5276 70.7577 56.5276 66.5867H54.6942C54.6942 72.4139 57.5836 77.1378 61.1478 77.1378Z" fill="#7738A1"/>
</g>
<defs>
<clipPath id="clip0_5194_10715">
<rect x="0.5" width="146" height="146" rx="73" fill="white"/>
</clipPath>
</defs>
</svg>
