<svg width="94" height="146" viewBox="0 0 94 146" fill="none" xmlns="http://www.w3.org/2000/svg">
<path d="M11.0199 31.1362L12.1968 34.3166L15.3772 35.4935L12.1968 36.6704L11.0199 39.8508L9.84307 36.6704L6.66266 35.4935L9.84307 34.3166L11.0199 31.1362Z" fill="white"/>
<path d="M16.5272 25.8628L17.3658 28.129L19.632 28.9676L17.3658 29.8062L16.5272 32.0725L15.6886 29.8062L13.4224 28.9676L15.6886 28.129L16.5272 25.8628Z" fill="white"/>
<path d="M68.6 7.86182L69.4386 10.1281L71.7048 10.9666L69.4386 11.8052L68.6 14.0715L67.7614 11.8052L65.4952 10.9666L67.7614 10.1281L68.6 7.86182Z" fill="white"/>
<path d="M68.6 21.1848L69.4386 23.4511L71.7048 24.2896L69.4386 25.1282L68.6 27.3945L67.7614 25.1282L65.4952 24.2896L67.7614 23.4511L68.6 21.1848Z" fill="white"/>
<path d="M90.3272 62.1228L91.1658 64.389L93.432 65.2276L91.1658 66.0662L90.3272 68.3325L89.4886 66.0662L87.2224 65.2276L89.4886 64.389L90.3272 62.1228Z" fill="white"/>
<path d="M22.7381 56.0356L23.5767 58.3019L25.8429 59.1405L23.5767 59.9791L22.7381 62.2453L21.8995 59.9791L19.6332 59.1405L21.8995 58.3019L22.7381 56.0356Z" fill="white"/>
<path d="M75.8699 38.9714L76.2593 40.0237L77.3116 40.4131L76.2593 40.8025L75.8699 41.8548L75.4805 40.8025L74.4282 40.4131L75.4805 40.0237L75.8699 38.9714Z" fill="white"/>
<path d="M58.7245 15.5681L59.1139 16.6204L60.1662 17.0098L59.1139 17.3992L58.7245 18.4515L58.3351 17.3992L57.2828 17.0098L58.3351 16.6204L58.7245 15.5681Z" fill="white"/>
<path d="M29.797 107.447C30.9097 105.404 35.9428 104.237 41.6033 103.966C37.5824 83.8693 36.2727 66.6429 39.1982 52.0127C35.8938 52.8947 32.868 54.7278 30.5778 57.5324C27.0128 68.4684 26.4101 81.9611 28.5694 99.0727C28.8528 101.319 29.1838 103.627 29.5619 106C29.6383 106.479 29.7167 106.962 29.797 107.447Z" fill="#B36FE0"/>
<path d="M44.7986 35.7634C38.1188 41.7595 33.4121 48.8379 30.5778 57.5324C32.868 54.7278 35.8938 52.8947 39.1982 52.0127C40.3624 46.1909 42.1972 40.7803 44.7986 35.7634Z" fill="#7738A1"/>
<path d="M53.1426 96.8446V76.8748C53.1426 76.1647 55.6604 75.2657 57.1212 76.6046L61.8748 80.8301C61.7836 71.5125 60.5023 63.962 58.3029 57.5324C53.1288 52.1852 45.6349 50.2947 39.1982 52.0127C36.2727 66.6429 37.5824 83.8693 41.6033 103.966C43.1531 103.891 44.75 103.884 46.3263 103.945C52.1896 104.17 57.7686 105.33 59.5852 107.447C60.6719 100.678 61.3527 94.5679 61.6696 89.018L54.6515 97.7322L53.1426 96.8446Z" fill="#D18BFF"/>
<path d="M58.3029 57.5324C55.2908 48.7269 50.5565 42.0238 44.7986 35.7634C42.1972 40.7803 40.3624 46.1909 39.1982 52.0127C45.6349 50.2947 53.1288 52.1852 58.3029 57.5324Z" fill="#B36FE0"/>
<path d="M53.1426 76.8748V96.8446L61.848 84.6208C61.8781 83.3253 61.8869 82.0623 61.8748 80.8301L57.1212 76.6046C55.6604 75.2657 53.1426 76.1647 53.1426 76.8748Z" fill="#DAA2FF"/>
<path d="M53.1426 96.8446L54.6515 97.7322L61.6696 89.018C61.7556 87.5117 61.8147 86.0466 61.848 84.6208L53.1426 96.8446Z" fill="#591C81"/>
<path d="M65.302 84.5077L63.5115 82.2849L61.848 84.6208C61.8147 86.0466 61.7556 87.5117 61.6696 89.018L65.302 84.5077Z" fill="#591C81"/>
<path d="M63.5115 82.2849L61.8748 80.8301C61.8869 82.0623 61.8781 83.3253 61.848 84.6208L63.5115 82.2849Z" fill="#DAA2FF"/>
<path d="M59.5852 107.447C57.7686 105.33 52.1896 104.17 46.3263 103.945C48.7394 104.989 49.1927 105.534 49.4458 106.412C52.1438 106.907 53.9485 107.809 53.9485 108.84C53.9485 109.813 52.3411 110.671 49.8925 111.181C53.1156 110.574 56.3947 109.377 59.5852 107.447Z" fill="#B36FE0"/>
<path fill-rule="evenodd" clip-rule="evenodd" d="M49.0902 106.35C49.0982 106.351 49.1062 106.352 49.1142 106.354C49.2262 106.372 49.3368 106.392 49.4458 106.412C49.1927 105.534 48.7394 104.989 46.3263 103.945C44.75 103.884 43.1531 103.891 41.6033 103.966C35.9428 104.237 30.9097 105.404 29.797 107.447" fill="#B36FE0"/>
<path d="M41.6033 103.966C35.9428 104.237 30.9097 105.404 29.797 107.447C32.7973 109.388 36.5816 110.84 40.7524 111.41C37.5807 110.959 35.382 109.978 35.382 108.84C35.382 107.276 39.5383 106.008 44.6653 106.008C46.2674 106.008 47.7748 106.132 49.0902 106.35L49.1142 106.354C49.2262 106.372 49.3368 106.392 49.4458 106.412C49.1927 105.534 48.7394 104.989 46.3263 103.945C44.75 103.884 43.1531 103.891 41.6033 103.966Z" fill="#7738A1"/>
<path d="M44.6653 106.008C39.5383 106.008 35.382 107.276 35.382 108.84C35.382 109.978 37.5807 110.959 40.7524 111.41C41.6407 111.531 42.5465 111.612 43.4661 111.649C43.7459 111.66 44.0296 111.667 44.3166 111.671C40.4602 111.619 37.3807 110.538 37.3807 109.212C37.3807 108.852 37.6072 108.51 38.0144 108.202C39.1459 107.346 41.6725 106.75 44.6078 106.75C47.543 106.75 50.0696 107.346 51.2011 108.202C51.6083 108.51 51.8348 108.852 51.8348 109.212C51.8348 110.557 48.6629 111.651 44.726 111.673C44.7064 111.673 44.6867 111.673 44.6671 111.673C44.656 111.673 44.645 111.673 44.6339 111.673C44.6444 111.673 44.6548 111.673 44.6653 111.673C44.6855 111.673 44.7058 111.673 44.726 111.673C46.4165 111.667 48.1463 111.511 49.8925 111.181C52.3411 110.671 53.9485 109.813 53.9485 108.84C53.9485 107.809 52.1438 106.907 49.4458 106.412C49.3368 106.392 49.2262 106.372 49.1142 106.354L49.0902 106.35C47.7748 106.132 46.2674 106.008 44.6653 106.008Z" fill="#D18BFF"/>
<path d="M44.6078 106.75C41.6725 106.75 39.1459 107.346 38.0144 108.202C41.0328 109.597 47.9438 109.67 51.2011 108.202C50.0696 107.346 47.543 106.75 44.6078 106.75Z" fill="#3B0062"/>
<path d="M38.0144 108.202C37.6072 108.51 37.3807 108.852 37.3807 109.212C37.3807 110.538 40.4602 111.619 44.3166 111.671C44.422 111.672 44.5277 111.673 44.6339 111.673C44.645 111.673 44.656 111.673 44.6671 111.673L44.726 111.673C48.6629 111.651 51.8348 110.557 51.8348 109.212C51.8348 108.852 51.6083 108.51 51.2011 108.202C47.9438 109.67 41.0328 109.597 38.0144 108.202Z" fill="#E3B9FF"/>
<path d="M61.612 171.35H36.9296C28.9002 146.761 38.3443 132.356 38.3451 108.261C42.9474 109.614 45.5217 109.617 50.1048 108.623C50.2029 108.697 50.9194 109.036 50.9816 110.259C52.4587 139.259 50.9972 155.765 61.612 171.35Z" fill="#FDEBAB"/>
<path d="M39.7664 66.5867C39.7664 70.7577 37.6982 74.1389 35.147 74.1389C32.5958 74.1389 30.5276 70.7577 30.5276 66.5867C30.5276 62.4157 32.5958 59.0345 35.147 59.0345C37.6982 59.0345 39.7664 62.4157 39.7664 66.5867Z" fill="#FEFAEA"/>
<path fill-rule="evenodd" clip-rule="evenodd" d="M41.6015 66.5867C41.6015 60.7595 38.7121 56.0356 35.1478 56.0356C31.5836 56.0356 28.6942 60.7595 28.6942 66.5867H30.5276C30.5276 62.4157 32.5958 59.0345 35.147 59.0345C37.6982 59.0345 39.7664 62.4157 39.7664 66.5867H41.6015Z" fill="#B36FE0"/>
<path d="M35.1478 77.1378C38.7121 77.1378 41.6015 72.4139 41.6015 66.5867H39.7664C39.7664 70.7577 37.6982 74.1389 35.147 74.1389C32.5958 74.1389 30.5276 70.7577 30.5276 66.5867H28.6942C28.6942 72.4139 31.5836 77.1378 35.1478 77.1378Z" fill="#7738A1"/>
</svg>
