<svg width="44" height="44" viewBox="0 0 44 44" fill="none" xmlns="http://www.w3.org/2000/svg">
<path d="M35.415 30.0739C34.3394 28.9975 33.0827 28.119 31.7025 27.4785C33.6489 25.9016 34.8907 23.4953 34.8907 20.7969C34.8907 16.036 30.9204 12.1301 26.1595 12.2032C21.4716 12.2762 17.6946 16.0961 17.6946 20.7969C17.6946 23.4953 18.9407 25.9016 20.8829 27.4785C19.5024 28.1185 18.2456 28.9971 17.1704 30.0739C14.8243 32.4242 13.4923 35.5266 13.4064 38.8352C13.4052 38.881 13.4133 38.9267 13.43 38.9694C13.4468 39.0121 13.4719 39.051 13.504 39.0838C13.536 39.1167 13.5743 39.1428 13.6165 39.1606C13.6588 39.1784 13.7042 39.1875 13.7501 39.1875H16.1564C16.3411 39.1875 16.4958 39.0414 16.5001 38.8567C16.5817 36.3645 17.5915 34.0313 19.3661 32.261C20.2742 31.348 21.3544 30.6243 22.5441 30.1316C23.7337 29.6389 25.0093 29.3871 26.297 29.3907C28.9138 29.3907 31.3759 30.409 33.2278 32.261C34.9982 34.0313 36.0079 36.3645 36.0939 38.8567C36.0982 39.0414 36.2528 39.1875 36.4376 39.1875H38.8439C38.8897 39.1875 38.9352 39.1784 38.9774 39.1606C39.0197 39.1428 39.058 39.1167 39.09 39.0838C39.1221 39.051 39.1472 39.0121 39.164 38.9694C39.1807 38.9267 39.1888 38.881 39.1876 38.8352C39.1017 35.5266 37.7696 32.4242 35.415 30.0739ZM26.297 26.2969C24.8275 26.2969 23.4439 25.7254 22.4083 24.6856C21.8886 24.17 21.4781 23.555 21.2013 22.8773C20.9244 22.1996 20.7869 21.473 20.797 20.741C20.8099 19.3317 21.3728 17.9696 22.3567 16.9598C23.388 15.9028 24.7673 15.3141 26.2411 15.2969C27.6978 15.284 29.1114 15.8512 30.1513 16.8696C31.2169 17.9137 31.8013 19.3102 31.8013 20.7969C31.8013 22.2664 31.2298 23.6457 30.19 24.6856C29.6798 25.1982 29.0731 25.6045 28.4048 25.8811C27.7366 26.1577 27.0202 26.299 26.297 26.2969ZM15.5333 21.9313C15.4946 21.5575 15.4732 21.1793 15.4732 20.7969C15.4732 20.1137 15.5376 19.4477 15.6579 18.7989C15.688 18.6442 15.6064 18.4852 15.4646 18.4207C14.8802 18.1586 14.3431 17.7977 13.879 17.3422C13.3322 16.812 12.9019 16.1736 12.6156 15.4678C12.3293 14.7621 12.1932 14.0043 12.2161 13.243C12.2548 11.8637 12.8091 10.5532 13.7759 9.56488C14.8372 8.47777 16.2638 7.8848 17.7806 7.90198C19.1513 7.91488 20.4747 8.44339 21.4759 9.38011C21.8153 9.69808 22.1075 10.0504 22.3525 10.4285C22.4384 10.5618 22.606 10.6176 22.7521 10.566C23.5083 10.3039 24.3075 10.1192 25.1282 10.0332C25.3689 10.0075 25.5064 9.74964 25.3989 9.5348C24.0025 6.77191 21.1493 4.86409 17.8493 4.81253C13.0841 4.73948 9.11378 8.64534 9.11378 13.402C9.11378 16.1004 10.3556 18.5067 12.3021 20.0836C10.9357 20.7153 9.67667 21.5875 8.58526 22.6789C6.23058 25.0293 4.89854 28.1317 4.81261 31.4446C4.81146 31.4904 4.8195 31.536 4.83627 31.5787C4.85303 31.6215 4.87816 31.6604 4.9102 31.6932C4.94223 31.726 4.98052 31.7521 5.02279 31.7699C5.06507 31.7878 5.11048 31.7969 5.15636 31.7969H7.56691C7.75167 31.7969 7.90636 31.6508 7.91066 31.466C7.9923 28.9739 9.00206 26.6407 10.7767 24.8703C12.04 23.6071 13.5868 22.7305 15.2755 22.3051C15.4431 22.2621 15.5548 22.1032 15.5333 21.9313Z" fill="#605DEC"/>
</svg>
