<svg width="20" height="21" viewBox="0 0 20 21" fill="none" xmlns="http://www.w3.org/2000/svg">
<path d="M8.33925 2.25322C7.17128 1.87513 5.90159 2.40105 5.34305 3.4943L4.67156 4.8086C4.59178 4.96477 4.46477 5.09178 4.3086 5.17156L2.9943 5.84305C1.90105 6.40159 1.37513 7.67128 1.75322 8.83925L2.20777 10.2434C2.26178 10.4102 2.26178 10.5899 2.20777 10.7567L1.75322 12.1609C1.37513 13.3289 1.90105 14.5986 2.9943 15.1572L4.3086 15.8286C4.46477 15.9084 4.59178 16.0354 4.67156 16.1916L5.34305 17.5059C5.90159 18.5992 7.17128 19.1251 8.33925 18.747L9.74341 18.2924C9.91025 18.2384 10.0899 18.2384 10.2567 18.2924L11.6609 18.747C12.8289 19.1251 14.0986 18.5992 14.6572 17.5059L15.3286 16.1916C15.4084 16.0354 15.5354 15.9084 15.6916 15.8286L17.0059 15.1572C18.0992 14.5986 18.6251 13.3289 18.247 12.1609L17.7924 10.7567C17.7384 10.5899 17.7384 10.4102 17.7924 10.2434L18.247 8.83925C18.6251 7.67128 18.0992 6.40159 17.0059 5.84305L15.6916 5.17156C15.5354 5.09178 15.4084 4.96477 15.3286 4.8086L14.6572 3.4943C14.0986 2.40105 12.8289 1.87513 11.6609 2.25322L10.2567 2.70777C10.0899 2.76177 9.91025 2.76178 9.74341 2.70777L8.33925 2.25322ZM5.63322 10.2978L6.81174 9.11925L9.16875 11.4763L13.8828 6.76229L15.0613 7.9408L9.16875 13.8333L5.63322 10.2978Z" fill="#605DEC"/>
</svg>
