<svg width="16" height="17" viewBox="0 0 16 17" fill="none" xmlns="http://www.w3.org/2000/svg">
<path d="M12.2422 10.857L11.2994 9.91424L12.2422 8.97144C13.5439 7.66971 13.5439 5.55915 12.2422 4.2574C10.9405 2.95565 8.82987 2.95565 7.52814 4.2574L6.58533 5.20021L5.64253 4.2574L6.58533 3.31459C8.40781 1.49214 11.3625 1.49214 13.185 3.31459C15.0075 5.13704 15.0075 8.09178 13.185 9.91424L12.2422 10.857ZM10.3565 12.7427L9.41374 13.6855C7.59134 15.5079 4.63655 15.5079 2.8141 13.6855C0.991654 11.863 0.991654 8.90824 2.8141 7.08583L3.75691 6.14302L4.69972 7.08583L3.75691 8.02864C2.45516 9.33038 2.45516 11.4409 3.75691 12.7427C5.05865 14.0444 7.16921 14.0444 8.47094 12.7427L9.41374 11.7998L10.3565 12.7427ZM9.88514 5.67162L10.828 6.61442L6.11393 11.3284L5.17112 10.3856L9.88514 5.67162Z" fill="#717171"/>
</svg>
