<svg width="16" height="17" viewBox="0 0 16 17" fill="none" xmlns="http://www.w3.org/2000/svg">
<g clip-path="url(#clip0_5112_1595)">
<path d="M8 14.4332L11.2998 11.1333C13.1223 9.3109 13.1223 6.35611 11.2998 4.53366C9.4774 2.71122 6.52261 2.71122 4.70017 4.53366C2.87772 6.35611 2.87772 9.3109 4.70017 11.1333L8 14.4332ZM8 16.3188L3.75736 12.0762C1.41421 9.73296 1.41421 5.934 3.75736 3.59086C6.10051 1.24771 9.89947 1.24771 12.2427 3.59086C14.5858 5.934 14.5858 9.73296 12.2427 12.0762L8 16.3188ZM8 9.16683C8.7364 9.16683 9.33333 8.5699 9.33333 7.8335C9.33333 7.09712 8.7364 6.50016 8 6.50016C7.2636 6.50016 6.66667 7.09712 6.66667 7.8335C6.66667 8.5699 7.2636 9.16683 8 9.16683ZM8 10.5002C6.52724 10.5002 5.33333 9.30623 5.33333 7.8335C5.33333 6.36074 6.52724 5.16683 8 5.16683C9.47273 5.16683 10.6667 6.36074 10.6667 7.8335C10.6667 9.30623 9.47273 10.5002 8 10.5002Z" fill="#717171"/>
</g>
<defs>
<clipPath id="clip0_5112_1595">
<rect width="16" height="16" fill="white" transform="translate(0 0.5)"/>
</clipPath>
</defs>
</svg>
