<svg width="548" height="503" viewBox="0 0 548 503" fill="none" xmlns="http://www.w3.org/2000/svg">
<path d="M389.447 448.054C439.767 448.054 480.56 435.952 480.56 421.023C480.56 406.094 439.767 393.992 389.447 393.992C339.128 393.992 298.335 406.094 298.335 421.023C298.335 435.952 339.128 448.054 389.447 448.054Z" fill="#263238" stroke="#263238" stroke-width="1.193" stroke-linecap="round" stroke-linejoin="round"/>
<path d="M389.447 406.423C432.543 406.423 468.634 415.257 478.111 427.233C479.608 425.5 480.471 423.311 480.56 421.024C480.56 406.083 439.761 393.98 389.447 393.98C339.134 393.98 298.323 406.083 298.323 421.024C298.411 423.311 299.275 425.5 300.771 427.233C310.248 415.307 346.34 406.423 389.447 406.423Z" fill="white" stroke="#263238" stroke-width="1.193" stroke-linecap="round" stroke-linejoin="round"/>
<path d="M377.005 444.66C346.567 443.284 323.599 437.088 323.599 429.516C323.615 428.69 323.874 427.887 324.344 427.207" stroke="white" stroke-width="1.193" stroke-linecap="round" stroke-linejoin="round"/>
<path d="M447.635 422.148C452.847 424.357 455.825 426.881 455.825 429.569C455.825 438.062 426.22 444.939 389.712 444.939H388.135" stroke="white" stroke-width="1.193" stroke-linecap="round" stroke-linejoin="round"/>
<path d="M332.496 421.855C343.942 417.274 365.307 414.183 389.712 414.183C403.6 414.076 417.47 415.212 431.155 417.577" stroke="white" stroke-width="1.193" stroke-linecap="round" stroke-linejoin="round"/>
<path d="M376.134 434.842C368.424 433.77 363.262 431.814 363.262 429.568C363.262 426.173 375.112 423.422 389.763 423.422C404.414 423.422 416.201 426.173 416.201 429.568C416.201 432.483 407.493 434.918 395.808 435.549" stroke="white" stroke-width="1.193" stroke-linecap="round" stroke-linejoin="round"/>
<path d="M23.5227 312.36C63.2612 301.065 146.877 278.779 193.026 277.101C255.063 274.905 359.805 319.931 425.198 327.818C490.592 335.706 534.533 333.459 534.533 333.459" stroke="#263238" stroke-width="1.193" stroke-linecap="round" stroke-linejoin="round"/>
<path d="M1.41357 318.809C1.41357 318.809 4.84605 317.762 10.8655 316.008" stroke="#263238" stroke-width="1.193" stroke-linecap="round" stroke-linejoin="round"/>
<path d="M516.878 248.556C493.972 243.524 470.537 241.308 447.093 241.956C398.609 243.584 346.138 249.995 281.261 258.361C216.385 266.728 123.998 220.503 61.179 237.653C-1.64034 254.803 3.12979 259.964 3.12979 259.964" stroke="#263238" stroke-width="1.193" stroke-linecap="round" stroke-linejoin="round"/>
<path d="M534.747 253.2C534.747 253.2 532.299 252.392 527.87 251.219" stroke="#263238" stroke-width="1.193" stroke-linecap="round" stroke-linejoin="round"/>
<path d="M418.422 134.006C417.723 131.169 416.095 128.649 413.796 126.847C411.497 125.046 408.66 124.066 405.739 124.066C402.818 124.066 399.982 125.046 397.683 126.847C395.384 128.649 393.755 131.169 393.057 134.006H418.422Z" stroke="#263238" stroke-width="1.193" stroke-linecap="round" stroke-linejoin="round"/>
<path d="M546.572 134.007C545.805 130.774 544.061 127.856 541.578 125.65C539.094 123.444 535.991 122.057 532.69 121.677C533.728 116.195 533.541 110.552 532.144 105.15C530.746 99.7491 528.171 94.7234 524.605 90.4331C521.038 86.1428 516.567 82.6939 511.511 80.3332C506.456 77.9725 500.942 76.7583 495.362 76.7776C486.453 76.7779 477.827 79.9121 470.996 85.6314C464.165 91.3506 459.563 99.2906 457.996 108.061C454.414 105.259 450.115 103.521 445.592 103.046C441.069 102.57 436.503 103.375 432.416 105.37C428.329 107.365 424.885 110.469 422.477 114.328C420.07 118.186 418.796 122.644 418.8 127.192C418.808 129.508 419.143 131.81 419.797 134.032L546.572 134.007Z" stroke="#263238" stroke-width="1.193" stroke-linecap="round" stroke-linejoin="round"/>
<path d="M192.686 164.47C192.339 163.022 191.514 161.734 190.345 160.813C189.177 159.892 187.732 159.391 186.244 159.391C184.756 159.391 183.311 159.892 182.142 160.813C180.973 161.734 180.149 163.022 179.802 164.47H192.686Z" stroke="#263238" stroke-width="1.193" stroke-linecap="round" stroke-linejoin="round"/>
<path d="M257.739 164.472C257.356 162.822 256.472 161.33 255.21 160.201C253.947 159.072 252.367 158.36 250.685 158.162C251.292 155.616 251.374 152.973 250.926 150.395C250.479 147.816 249.51 145.356 248.08 143.164C246.65 140.971 244.789 139.094 242.609 137.645C240.43 136.196 237.978 135.206 235.403 134.736C232.829 134.265 230.185 134.324 227.634 134.909C225.083 135.494 222.678 136.593 220.565 138.138C218.453 139.683 216.677 141.642 215.347 143.895C214.016 146.149 213.159 148.65 212.827 151.247C211.008 149.825 208.827 148.944 206.531 148.702C204.236 148.461 201.919 148.869 199.844 149.881C197.769 150.892 196.021 152.466 194.798 154.424C193.574 156.381 192.926 158.643 192.926 160.951C192.932 162.13 193.101 163.302 193.431 164.434L257.739 164.472Z" stroke="#263238" stroke-width="1.193" stroke-linecap="round" stroke-linejoin="round"/>
<path d="M251.189 184.839C250.972 183.924 250.452 183.11 249.715 182.528C248.978 181.946 248.066 181.629 247.126 181.629C246.186 181.629 245.274 181.946 244.537 182.528C243.8 183.11 243.28 183.924 243.062 184.839H251.189Z" stroke="#263238" stroke-width="1.193" stroke-linecap="round" stroke-linejoin="round"/>
<path d="M292.253 184.837C292.008 183.8 291.448 182.865 290.651 182.158C289.853 181.451 288.857 181.007 287.798 180.888C287.935 180.151 288.003 179.403 288 178.654C287.963 175.644 286.81 172.755 284.766 170.545C282.722 168.335 279.931 166.962 276.933 166.69C273.935 166.419 270.943 167.268 268.535 169.075C266.128 170.881 264.475 173.516 263.897 176.471C262.749 175.574 261.372 175.019 259.923 174.867C258.474 174.716 257.012 174.975 255.703 175.614C254.394 176.253 253.291 177.248 252.52 178.483C251.748 179.719 251.34 181.147 251.341 182.604C251.342 183.347 251.448 184.086 251.656 184.8L292.253 184.837Z" stroke="#263238" stroke-width="1.193" stroke-linecap="round" stroke-linejoin="round"/>
<path d="M163.762 330.213C163.318 330.219 162.881 330.101 162.5 329.872C161.948 329.532 161.549 328.992 161.384 328.364C161.22 327.737 161.303 327.07 161.617 326.503C162.235 325.417 318.262 155.27 389.65 92.8798C389.899 92.6798 390.214 92.5815 390.533 92.605C390.851 92.6284 391.149 92.7717 391.366 93.006C391.573 93.2565 391.676 93.5776 391.652 93.9021C391.629 94.2265 391.481 94.5294 391.24 94.7474C320.205 156.873 166.488 327.903 165.87 328.976C165.66 329.351 165.354 329.662 164.983 329.88C164.613 330.097 164.192 330.212 163.762 330.213Z" fill="#263238"/>
<path d="M172.381 296.355C172.381 296.355 180.117 288.102 184.761 288.102C189.405 288.102 198.175 295.837 197.658 299.964C197.141 304.09 189.405 300.481 189.405 300.481C189.405 300.481 182.174 310.286 174.956 308.734C167.737 307.182 172.381 296.355 172.381 296.355Z" fill="#0B40EE" stroke="#263238" stroke-width="1.193" stroke-linecap="round" stroke-linejoin="round"/>
<path d="M189.443 300.457C189.443 300.457 194.175 303.738 194.592 306.047C195.008 308.357 189.342 314.881 183.045 316.345C176.748 317.809 173.378 314.237 175.271 310.881C177.164 307.524 184.673 300.76 189.443 300.457Z" fill="#0B40EE" stroke="#263238" stroke-width="1.193" stroke-linecap="round" stroke-linejoin="round"/>
<path d="M383.782 270.564V99.8359C383.782 99.8359 380.336 112.19 380.336 113.086" stroke="#263238" stroke-width="1.193" stroke-linecap="round" stroke-linejoin="round"/>
<path d="M454.98 279.559H324.066V384.451H454.98V279.559Z" fill="#0B40EE" stroke="#263238" stroke-width="1.193" stroke-linecap="round" stroke-linejoin="round"/>
<path d="M385.649 279.118V273.111C385.649 272.713 385.491 272.331 385.209 272.049C384.928 271.768 384.546 271.609 384.147 271.609C383.749 271.609 383.367 271.768 383.086 272.049C382.804 272.331 382.646 272.713 382.646 273.111V279.118H385.649Z" fill="#263238"/>
<path d="M397.663 264.506V264.809C397.541 264.579 397.359 264.387 397.137 264.251C396.915 264.116 396.661 264.043 396.401 264.039C395.999 264.039 395.614 264.199 395.33 264.483C395.046 264.767 394.886 265.152 394.886 265.553V281.593C394.886 282.819 394.4 283.995 393.534 284.863C392.669 285.731 391.494 286.221 390.268 286.224C389.633 286.225 389.005 286.092 388.425 285.833C388.091 286.332 387.945 286.934 388.014 287.53C388.084 288.127 388.364 288.68 388.804 289.089C389.287 289.18 389.777 289.226 390.268 289.227C391.27 289.227 392.263 289.03 393.189 288.646C394.116 288.263 394.957 287.7 395.666 286.991C396.375 286.282 396.938 285.441 397.321 284.514C397.705 283.588 397.903 282.595 397.903 281.593V274.16H401.36L397.663 264.506Z" fill="#263238"/>
<path d="M383.908 98.2317C383.908 98.2317 386.583 88.7293 384.211 89.6127C381.838 90.496 383.908 98.2317 383.908 98.2317Z" stroke="#263238" stroke-width="1.193" stroke-linecap="round" stroke-linejoin="round"/>
<path d="M383.908 98.2317C383.908 98.2317 373.812 94.6604 374.708 97.9288C375.604 101.197 383.908 98.2317 383.908 98.2317Z" stroke="#263238" stroke-width="1.193" stroke-linecap="round" stroke-linejoin="round"/>
<path d="M166.21 181.053C166.21 181.053 153.755 174.074 129.324 177.57C104.893 181.065 100.236 201.206 104.224 222.142C108.212 243.077 131.318 260.807 134.813 259.318C138.309 257.829 133.816 210.961 141.792 201.988C149.767 193.016 175.687 194.518 177.126 187.539C178.565 180.561 166.21 181.053 166.21 181.053Z" fill="#263238" stroke="#263238" stroke-width="1.193" stroke-linecap="round" stroke-linejoin="round"/>
<path d="M122.787 193.484L125.311 209.978C125.311 209.978 109.663 252.694 112.2 258.625C114.736 264.557 138.41 266.651 138.41 266.651C138.41 266.651 176.899 271.308 188.32 266.651C199.74 261.995 193.822 248.467 192.547 244.668C191.273 240.87 184.092 210.407 184.092 210.407C184.092 210.407 186.616 203.214 186.616 199.415C186.616 195.617 186.187 185.029 184.496 182.493C182.805 179.956 153.2 176.991 140.088 179.111C126.977 181.231 121.096 184.613 122.787 193.484Z" fill="#757575" stroke="#263238" stroke-width="1.193" stroke-linecap="round" stroke-linejoin="round"/>
<path d="M129.564 212.525C129.564 212.525 129.135 249.311 131.255 256.504C133.375 263.697 141.83 272.152 159.585 270.032C177.341 267.912 179.044 251.002 179.044 251.002L177.782 211.68L129.564 212.525Z" fill="white" stroke="#263238" stroke-width="1.193" stroke-linecap="round" stroke-linejoin="round"/>
<path d="M160.014 238.949C160.017 239.578 159.832 240.194 159.484 240.719C159.137 241.244 158.641 241.653 158.06 241.896C157.479 242.138 156.839 242.203 156.221 242.082C155.604 241.961 155.036 241.659 154.59 241.214C154.144 240.77 153.84 240.204 153.716 239.586C153.592 238.969 153.655 238.329 153.895 237.747C154.135 237.166 154.543 236.668 155.066 236.318C155.589 235.968 156.205 235.781 156.834 235.781C157.251 235.78 157.664 235.86 158.05 236.019C158.436 236.177 158.787 236.41 159.082 236.705C159.377 236.999 159.612 237.349 159.772 237.734C159.932 238.119 160.014 238.532 160.014 238.949Z" stroke="#263238" stroke-width="1.193" stroke-miterlimit="10"/>
<path d="M159.585 252.276C159.585 252.696 159.461 253.107 159.227 253.455C158.994 253.804 158.662 254.076 158.274 254.236C157.886 254.396 157.459 254.438 157.047 254.355C156.635 254.272 156.258 254.069 155.962 253.771C155.666 253.473 155.465 253.094 155.384 252.682C155.304 252.27 155.348 251.843 155.51 251.456C155.673 251.069 155.946 250.739 156.297 250.507C156.647 250.276 157.058 250.154 157.478 250.156C157.756 250.156 158.031 250.211 158.287 250.318C158.544 250.425 158.777 250.581 158.973 250.778C159.168 250.975 159.323 251.209 159.429 251.466C159.534 251.723 159.587 251.999 159.585 252.276Z" fill="#263238"/>
<path d="M146.814 225.385C148.165 226.849 148.631 228.603 147.874 229.322C147.117 230.041 145.35 229.436 144.025 227.984C142.7 226.533 142.196 224.779 142.965 224.06C143.735 223.34 145.464 223.933 146.814 225.385Z" fill="#263238"/>
<path d="M163.989 225.385C162.639 226.849 162.16 228.603 162.929 229.322C163.699 230.041 165.453 229.436 166.715 227.984C167.977 226.533 168.545 224.779 167.775 224.06C167.005 223.34 165.34 223.933 163.989 225.385Z" fill="#263238"/>
<path d="M137.779 220.402C138.726 219.004 140.088 217.938 141.672 217.354C143.257 216.77 144.984 216.697 146.612 217.146" stroke="#263238" stroke-width="1.193" stroke-linecap="round" stroke-linejoin="round"/>
<path d="M163.321 217.609C163.321 217.609 169.353 215.754 171.22 220.865" stroke="#263238" stroke-width="1.193" stroke-linecap="round" stroke-linejoin="round"/>
<path d="M183.688 453.618C183.688 453.618 190.339 449.63 194.024 448.065C194.369 447.906 194.723 447.767 195.084 447.649C198.339 446.563 207.564 447.106 216.234 441.68C224.903 436.253 220.575 429.742 214.063 428.114C207.552 426.486 200.51 424.328 200.51 424.328L198.882 398.824C198.882 398.824 179.347 404.251 172.836 406.964C166.324 409.677 170.122 448.191 170.665 451.447C171.208 454.703 171.208 456.873 183.688 453.618Z" fill="#263238" stroke="#263238" stroke-width="1.193" stroke-linecap="round" stroke-linejoin="round"/>
<path d="M205.394 441.683C194.036 443.853 194.036 446.024 181.518 448.194C177.851 448.926 174.112 449.231 170.375 449.103C170.501 450.264 170.602 451.084 170.665 451.45C171.208 454.706 171.208 456.876 183.688 453.621C183.688 453.621 190.339 449.633 194.024 448.068C194.369 447.909 194.723 447.77 195.084 447.652C198.339 446.566 207.564 447.109 216.234 441.683C219.023 439.954 220.449 438.099 220.915 436.332C215.988 438.764 210.773 440.562 205.394 441.683Z" fill="white" stroke="#263238" stroke-width="1.193" stroke-linecap="round" stroke-linejoin="round"/>
<path d="M209.912 427.787C209.912 427.787 209.495 457.392 208.65 463.727C207.804 470.062 209.066 478.113 218.745 478.113C228.424 478.113 247.505 471.804 254.269 470.542C261.033 469.28 272.037 466.301 276.681 455.739C281.325 445.177 253.007 446.426 253.007 446.426L254.698 424.859C254.698 424.859 225.56 430.74 209.912 427.787Z" fill="#263238" stroke="#263238" stroke-width="1.193" stroke-linecap="round" stroke-linejoin="round"/>
<path d="M276.731 455.702C277.249 454.675 277.375 453.495 277.084 452.383C274.186 456.318 270.255 459.376 265.727 461.216C255.631 465.444 236.538 470.05 222.165 472.22C215.59 473.18 211.426 472.107 208.813 470.668C209.747 474.77 212.486 478.139 218.783 478.139C228.512 478.139 247.542 471.829 254.306 470.567C261.07 469.305 272.087 466.264 276.731 455.702Z" fill="white" stroke="#263238" stroke-width="1.193" stroke-linecap="round" stroke-linejoin="round"/>
<path d="M253.057 446.387C253.057 446.387 255.165 453.58 249.271 458.236" stroke="white" stroke-width="1.193" stroke-linecap="round" stroke-linejoin="round"/>
<path d="M206.958 412.139C206.958 412.139 206.302 424.998 207.021 427.572C209.722 437.34 210.58 435.056 230.885 434.627C251.189 434.198 259.392 426.096 261.512 421.023C263.632 415.95 261.512 404.946 260.667 401.135C259.821 397.324 253.095 396.087 250.508 396.491C247.921 396.895 208.22 407.911 206.958 412.139Z" fill="#757575" stroke="#263238" stroke-width="1.193" stroke-linecap="round" stroke-linejoin="round"/>
<path d="M67.3879 444.281V472.7C67.3973 473.812 67.7103 474.9 68.2929 475.848C68.8756 476.795 69.7059 477.565 70.6942 478.075L116.376 501.661C117.189 502.084 118.087 502.317 119.003 502.343C119.919 502.369 120.828 502.188 121.664 501.813L188.963 476.157C190.037 475.676 190.949 474.895 191.589 473.907C192.229 472.92 192.571 471.769 192.572 470.592V436.242L115.594 459.5L67.3879 444.281Z" fill="#0B40EE"/>
<mask id="mask0_1646_15120" style="mask-type:luminance" maskUnits="userSpaceOnUse" x="67" y="436" width="126" height="67">
<path d="M67.3879 444.281V472.7C67.3973 473.812 67.7103 474.9 68.2929 475.848C68.8756 476.795 69.7059 477.565 70.6942 478.075L116.376 501.661C117.189 502.084 118.087 502.317 119.003 502.343C119.919 502.369 120.828 502.188 121.664 501.813L188.963 476.157C190.037 475.676 190.949 474.895 191.589 473.907C192.229 472.92 192.571 471.769 192.572 470.592V436.242L115.594 459.5L67.3879 444.281Z" fill="white"/>
</mask>
<g mask="url(#mask0_1646_15120)">
<path opacity="0.18" d="M118.989 458.478L115.607 459.5L67.3879 444.281V472.7C67.3973 473.812 67.7103 474.901 68.2929 475.848C68.8756 476.796 69.7059 477.566 70.6942 478.076L116.376 501.662C117.184 502.084 118.077 502.317 118.989 502.343V458.478Z" fill="black"/>
</g>
<path d="M67.3879 444.281V472.7C67.3973 473.812 67.7103 474.9 68.2929 475.848C68.8756 476.795 69.7059 477.565 70.6942 478.075L116.376 501.661C117.189 502.084 118.087 502.317 119.003 502.343C119.919 502.369 120.828 502.188 121.664 501.813L188.963 476.157C190.037 475.676 190.949 474.895 191.589 473.907C192.229 472.92 192.571 471.769 192.572 470.592V436.242L115.594 459.5L67.3879 444.281Z" stroke="#263238" stroke-width="1.193" stroke-linecap="round" stroke-linejoin="round"/>
<path d="M137.703 396.301L63.8797 420.026C63.3027 420.211 62.7997 420.575 62.4435 421.065C62.0872 421.555 61.8963 422.146 61.8985 422.752V443.801C61.9096 444.331 62.0677 444.847 62.3551 445.293C62.6425 445.739 63.048 446.096 63.5264 446.325L114.988 470.819C115.335 470.985 115.711 471.079 116.095 471.096C116.479 471.114 116.862 471.054 117.222 470.92L194.49 442.009C195.037 441.806 195.509 441.441 195.842 440.963C196.176 440.485 196.356 439.916 196.358 439.333L196.497 419.584C196.493 418.93 196.267 418.298 195.857 417.789C195.447 417.28 194.876 416.925 194.238 416.783L139.167 396.226C138.68 396.128 138.177 396.154 137.703 396.301Z" fill="white"/>
<mask id="mask1_1646_15120" style="mask-type:luminance" maskUnits="userSpaceOnUse" x="61" y="396" width="136" height="76">
<path d="M137.703 396.301L63.8797 420.026C63.3027 420.211 62.7997 420.575 62.4435 421.065C62.0872 421.555 61.8963 422.146 61.8985 422.752V443.801C61.9096 444.331 62.0677 444.847 62.3551 445.293C62.6425 445.739 63.048 446.096 63.5264 446.325L114.988 470.819C115.335 470.985 115.711 471.079 116.095 471.096C116.479 471.114 116.862 471.054 117.222 470.92L194.49 442.009C195.037 441.806 195.509 441.441 195.842 440.963C196.176 440.485 196.356 439.916 196.358 439.333L196.497 419.584C196.493 418.93 196.267 418.298 195.857 417.789C195.447 417.28 194.876 416.925 194.238 416.783L139.167 396.226C138.68 396.128 138.177 396.154 137.703 396.301Z" fill="white"/>
</mask>
<g mask="url(#mask1_1646_15120)">
<path d="M114.9 470.806C115.246 470.972 115.623 471.066 116.006 471.083C116.39 471.101 116.773 471.041 117.134 470.907L194.49 442.008C195.037 441.806 195.509 441.441 195.842 440.963C196.176 440.485 196.356 439.916 196.358 439.333L196.497 419.584C196.499 418.911 196.257 418.261 195.815 417.754L115.998 447.233L114.9 470.806Z" fill="#0B40EE"/>
<path opacity="0.5" d="M114.9 470.806C115.246 470.972 115.623 471.066 116.006 471.083C116.39 471.101 116.773 471.041 117.134 470.907L194.49 442.008C195.037 441.806 195.509 441.441 195.842 440.963C196.176 440.485 196.356 439.916 196.358 439.333L196.497 419.584C196.499 418.911 196.257 418.261 195.815 417.754L115.998 447.233L114.9 470.806Z" fill="white"/>
<path d="M61.8984 422.687V443.737C61.9096 444.267 62.0677 444.783 62.3551 445.229C62.6425 445.675 63.048 446.032 63.5263 446.261L114.988 470.818C115.332 470.984 115.705 471.078 116.086 471.095V447.232L61.9868 422.195C61.9379 422.355 61.9082 422.52 61.8984 422.687Z" fill="#0B40EE"/>
</g>
<path d="M137.703 396.301L63.8797 420.026C63.3027 420.211 62.7997 420.575 62.4435 421.065C62.0872 421.555 61.8963 422.146 61.8985 422.752V443.801C61.9096 444.331 62.0677 444.847 62.3551 445.293C62.6425 445.739 63.048 446.096 63.5264 446.325L114.988 470.819C115.335 470.985 115.711 471.079 116.095 471.096C116.479 471.114 116.862 471.054 117.222 470.92L194.49 442.009C195.037 441.806 195.509 441.441 195.842 440.963C196.176 440.485 196.356 439.916 196.358 439.333L196.497 419.584C196.493 418.93 196.267 418.298 195.857 417.789C195.447 417.28 194.876 416.925 194.238 416.783L139.167 396.226C138.68 396.128 138.177 396.154 137.703 396.301Z" stroke="#263238" stroke-width="1.193" stroke-linecap="round" stroke-linejoin="round"/>
<path d="M239.1 357.586C239.1 357.586 248.817 362.23 253.903 371.543C258.988 380.856 255.164 398.599 252.199 404.101C249.233 409.603 229.37 412.14 222.606 412.14C215.842 412.14 214.568 411.294 214.568 411.294C214.568 411.294 193.001 415.522 179.461 418.058C165.92 420.595 169.365 388.882 173.542 374.496C177.719 360.11 201.456 352.93 211.186 352.93C220.915 352.93 239.1 357.586 239.1 357.586Z" fill="#263238" stroke="#263238" stroke-width="1.193" stroke-linecap="round" stroke-linejoin="round"/>
<path d="M214.568 411.295C214.568 411.295 232.752 404.985 240.362 388.883" stroke="white" stroke-width="1.193" stroke-linecap="round" stroke-linejoin="round"/>
<path d="M231.907 401.98C237.767 399.523 243.085 395.934 247.555 391.418" stroke="white" stroke-width="1.193" stroke-linecap="round" stroke-linejoin="round"/>
<path d="M189.19 371.543C189.19 371.543 194.238 398.182 191.714 409.174C189.19 420.165 174.375 421.869 170.993 420.594C167.611 419.32 169.302 393.109 169.302 379.998C169.302 366.886 182.426 367.732 189.19 371.543Z" fill="#757575" stroke="#263238" stroke-width="1.193" stroke-linecap="round" stroke-linejoin="round"/>
<path d="M81.345 300.485C81.345 300.485 78.3921 317.811 80.4995 326.291C81.5732 331.015 83.586 335.474 86.4181 339.403C86.4181 339.403 75.843 355.051 77.9631 368.15C80.0831 381.249 85.5347 382.952 85.5347 382.952C85.5347 382.952 80.8908 407.068 89.3205 415.523C97.7503 423.978 116.389 433.279 137.11 429.48C157.831 425.682 171.788 424.824 176.016 417.631C180.243 410.438 177.707 378.725 177.707 378.725C177.707 378.725 176.861 343.63 176.016 322.051C175.17 300.472 172.23 283.146 162.059 274.691C151.888 266.236 107.076 279.347 93.548 288.219C80.02 297.09 81.345 300.485 81.345 300.485Z" fill="#0B40EE"/>
<mask id="mask2_1646_15120" style="mask-type:luminance" maskUnits="userSpaceOnUse" x="77" y="271" width="102" height="160">
<path d="M81.345 300.485C81.345 300.485 78.3921 317.811 80.4995 326.291C81.5732 331.015 83.586 335.474 86.4181 339.403C86.4181 339.403 75.843 355.051 77.9631 368.15C80.0831 381.249 85.5347 382.952 85.5347 382.952C85.5347 382.952 80.8908 407.068 89.3205 415.523C97.7503 423.978 116.389 433.279 137.11 429.48C157.831 425.682 171.788 424.824 176.016 417.631C180.243 410.438 177.707 378.725 177.707 378.725C177.707 378.725 176.861 343.63 176.016 322.051C175.17 300.472 172.23 283.146 162.059 274.691C151.888 266.236 107.076 279.347 93.548 288.219C80.02 297.09 81.345 300.485 81.345 300.485Z" fill="white"/>
</mask>
<g mask="url(#mask2_1646_15120)">
<path opacity="0.3" d="M84.3612 300.485C84.3612 300.485 81.3956 317.824 83.5157 326.291C84.5831 331.017 86.5964 335.477 89.4342 339.403C89.4342 339.403 78.8591 355.051 80.9792 368.15C83.0992 381.249 88.5508 382.952 88.5508 382.952C88.5508 382.952 83.8943 407.068 92.3366 415.523C100.779 423.978 119.456 433.279 140.227 429.48C160.999 425.682 174.918 424.824 179.145 417.631C183.373 410.438 180.836 378.725 180.836 378.725C180.836 378.725 179.991 343.63 179.145 322.051C178.3 300.472 175.36 283.146 165.188 274.691C155.017 266.236 110.206 279.347 96.6777 288.219C83.1497 297.09 84.3612 300.485 84.3612 300.485Z" fill="black"/>
</g>
<path d="M81.345 300.485C81.345 300.485 78.3921 317.811 80.4995 326.291C81.5732 331.015 83.586 335.474 86.4181 339.403C86.4181 339.403 75.843 355.051 77.9631 368.15C80.0831 381.249 85.5347 382.952 85.5347 382.952C85.5347 382.952 80.8908 407.068 89.3205 415.523C97.7503 423.978 116.389 433.279 137.11 429.48C157.831 425.682 171.788 424.824 176.016 417.631C180.243 410.438 177.707 378.725 177.707 378.725C177.707 378.725 176.861 343.63 176.016 322.051C175.17 300.472 172.23 283.146 162.059 274.691C151.888 266.236 107.076 279.347 93.548 288.219C80.02 297.09 81.345 300.485 81.345 300.485Z" stroke="#263238" stroke-width="1.193" stroke-linecap="round" stroke-linejoin="round"/>
<path d="M86.418 339.402C92.9653 343.869 100.456 346.762 108.306 347.856C116.155 348.951 124.152 348.217 131.671 345.712" stroke="#263238" stroke-width="1.193" stroke-linecap="round" stroke-linejoin="round"/>
<path d="M85.5725 382.949C85.5725 382.949 107.139 404.099 142.675 383.795" stroke="#263238" stroke-width="1.193" stroke-linecap="round" stroke-linejoin="round"/>
<path d="M169.731 279.761C169.731 279.761 161.705 267.495 150.701 260.731C139.697 253.967 111.379 248.894 99.9585 246.774C88.5379 244.654 76.2719 245.512 72.8899 258.132C69.5079 270.751 69.9243 291.964 73.3063 301.265C76.6883 310.565 90.6454 316.067 101.649 309.732C112.654 303.398 143.092 278.853 153.667 277.591C164.242 276.329 168.886 284.418 169.731 279.761Z" fill="#757575"/>
<mask id="mask3_1646_15120" style="mask-type:luminance" maskUnits="userSpaceOnUse" x="70" y="245" width="100" height="68">
<path d="M169.731 279.761C169.731 279.761 161.705 267.495 150.701 260.731C139.697 253.967 111.379 248.894 99.9585 246.774C88.5379 244.654 76.2719 245.512 72.8899 258.132C69.5079 270.751 69.9243 291.964 73.3063 301.265C76.6883 310.565 90.6454 316.067 101.649 309.732C112.654 303.398 143.092 278.853 153.667 277.591C164.242 276.329 168.886 284.418 169.731 279.761Z" fill="white"/>
</mask>
<g mask="url(#mask3_1646_15120)">
<path opacity="0.3" d="M146.272 277.427C152.72 274.739 136.593 279.573 135.52 277.957C134.447 276.342 146.802 268.291 149.49 267.218C152.178 266.146 133.905 269.906 134.447 267.218C134.99 264.53 152.178 263.988 140.353 261.3C128.529 258.612 89.8756 251.621 82.3039 248.933C81.7248 248.744 81.1763 248.472 80.676 248.125C78.7181 249.135 77.0059 250.563 75.6605 252.307C74.3151 254.052 73.3692 256.07 72.8899 258.221C69.5079 270.903 69.9243 292.053 73.3063 301.354C76.2593 309.455 87.1877 314.667 97.2832 311.702C101.94 307.916 106.243 302.944 113.524 298.363C127.999 289.201 139.823 280.065 146.272 277.427Z" fill="black"/>
</g>
<path d="M169.731 279.761C169.731 279.761 161.705 267.495 150.701 260.731C139.697 253.967 111.379 248.894 99.9585 246.774C88.5379 244.654 76.2719 245.512 72.8899 258.132C69.5079 270.751 69.9243 291.964 73.3063 301.265C76.6883 310.565 90.6454 316.067 101.649 309.732C112.654 303.398 143.092 278.853 153.667 277.591C164.242 276.329 168.886 284.418 169.731 279.761Z" stroke="#263238" stroke-width="1.193" stroke-linecap="round" stroke-linejoin="round"/>
<path d="M215.413 337.281C215.413 337.281 225.143 338.543 231.478 341.067C237.813 343.591 242.053 359.252 239.516 361.359C236.98 363.467 231.945 360.943 231.945 360.943C227.967 362.342 223.857 363.331 219.679 363.896C214.568 364.35 209.066 340.247 215.413 337.281Z" fill="#0B40EE" stroke="#263238" stroke-width="1.193" stroke-linecap="round" stroke-linejoin="round"/>
<path d="M183.272 336.007C183.272 336.007 184.963 336.007 194.263 331.78C203.564 327.552 211.186 327.552 217.104 336.827C223.023 346.103 225.559 357.561 222.152 364.325C218.745 371.089 206.088 375.745 199.311 375.745C192.534 375.745 191.739 366.912 191.739 366.912C191.739 366.912 190.894 352.955 186.692 347.882C182.489 342.809 181.581 337.282 183.272 336.007Z" fill="#757575" stroke="#263238" stroke-width="1.193" stroke-linecap="round" stroke-linejoin="round"/>
<path d="M151.976 279.763C161.276 276.381 173.126 278.501 177.353 290.338C181.581 302.175 185.379 336.853 185.379 336.853C185.379 336.853 195.954 338.115 200.182 342.784C204.409 347.453 206.491 359.278 205.684 365.196C204.876 371.115 190.036 382.106 173.126 382.535C156.216 382.964 143.937 374.964 138.019 353.347C132.1 331.73 134.447 298.881 134.447 298.881C134.447 298.881 136.593 289.202 139.823 287.044" fill="#0B40EE"/>
<mask id="mask4_1646_15120" style="mask-type:luminance" maskUnits="userSpaceOnUse" x="133" y="278" width="73" height="105">
<path d="M151.976 279.763C161.276 276.381 173.126 278.501 177.353 290.338C181.581 302.175 185.379 336.853 185.379 336.853C185.379 336.853 195.954 338.115 200.182 342.784C204.409 347.453 206.491 359.278 205.684 365.196C204.876 371.115 190.036 382.106 173.126 382.535C156.216 382.964 143.937 374.964 138.019 353.347C132.1 331.73 134.447 298.881 134.447 298.881C134.447 298.881 136.593 289.202 139.823 287.044" fill="white"/>
</mask>
<g mask="url(#mask4_1646_15120)">
<path opacity="0.3" d="M205.684 365.197C206.529 359.279 204.422 347.429 200.182 342.785C200.018 342.596 199.816 342.419 199.639 342.243C200.146 346.043 200.449 349.868 200.548 353.701C201.393 378.523 166.703 374.372 159.711 356.389C155.926 346.71 154.866 304.246 143.584 301.028C137.072 299.173 134.851 304.271 134.145 308.927C133.917 321.105 134.321 339.87 138.019 353.348C143.937 374.927 156.203 382.953 173.126 382.536C190.048 382.12 204.838 371.116 205.684 365.197Z" fill="black"/>
</g>
<path d="M151.976 279.763C161.276 276.381 173.126 278.501 177.353 290.338C181.581 302.175 185.379 336.853 185.379 336.853C185.379 336.853 195.954 338.115 200.182 342.784C204.409 347.453 206.491 359.278 205.684 365.196C204.876 371.115 190.036 382.106 173.126 382.535C156.216 382.964 143.937 374.964 138.019 353.347C132.1 331.73 134.447 298.881 134.447 298.881C134.447 298.881 136.593 289.202 139.823 287.044" stroke="#263238" stroke-width="1.193" stroke-linecap="round" stroke-linejoin="round"/>
<path d="M185.379 336.852C185.379 336.852 188.686 352.26 171.7 360.715" stroke="#263238" stroke-width="1.193" stroke-linecap="round" stroke-linejoin="round"/>
<path d="M101.233 68.2631C101.233 64.7549 102.848 62.168 106.495 62.168C110.142 62.168 111.833 64.6919 111.833 68.2631V80.5671C111.833 84.0752 110.205 86.6622 106.495 86.6622C102.785 86.6622 101.233 84.1383 101.233 80.5671V68.2631ZM102.81 80.6806C102.81 83.3055 103.845 85.2236 106.495 85.2236C109.145 85.2236 110.281 83.3055 110.281 80.6806V68.1622C110.281 65.55 109.221 63.6192 106.495 63.6192C103.769 63.6192 102.81 65.55 102.81 68.1622V80.6806Z" fill="#263238"/>
<path d="M114.344 68.2631C114.344 64.7549 115.96 62.168 119.607 62.168C123.254 62.168 124.945 64.6919 124.945 68.2631V80.5671C124.945 84.0752 123.33 86.6622 119.607 86.6622C115.884 86.6622 114.344 84.1383 114.344 80.5671V68.2631ZM115.922 80.6806C115.922 83.3055 116.957 85.2236 119.607 85.2236C122.257 85.2236 123.393 83.3055 123.393 80.6806V68.1622C123.393 65.55 122.333 63.6192 119.607 63.6192C116.881 63.6192 115.922 65.55 115.922 68.1622V80.6806Z" fill="#263238"/>
<path d="M132.554 62.3789C136.264 62.3789 137.716 64.7135 137.716 68.2217V70.8465C137.716 74.6324 135.949 76.5505 132.138 76.5505H129.147V86.4693H127.607V62.3789H132.554ZM132.138 75.1119C134.927 75.1119 136.126 73.8499 136.126 70.9475V68.1207C136.126 65.5085 135.23 63.8175 132.554 63.8175H129.147V75.175L132.138 75.1119Z" fill="#263238"/>
<path d="M150.234 68.1983V68.7031H148.72V68.0848C148.72 65.5609 147.761 63.6175 145.149 63.6175C142.536 63.6175 141.565 65.5104 141.565 68.0595C141.565 73.9023 150.272 74.0033 150.272 80.6789C150.272 84.1493 148.758 86.6984 145.073 86.6984C141.388 86.6984 139.886 84.1745 139.886 80.6789V79.417H141.401V80.7546C141.401 83.2785 142.398 85.1967 145.048 85.1967C147.698 85.1967 148.695 83.329 148.695 80.7546C148.695 74.975 139.987 74.874 139.987 68.1352C139.987 64.5261 141.565 62.1789 145.111 62.141C148.657 62.1032 150.234 64.7154 150.234 68.1983Z" fill="#263238"/>
<path d="M154.197 83.4414V86.4701H152.657V83.4414H154.197Z" fill="#263238"/>
<path d="M158.5 83.4414V86.4701H156.96V83.4414H158.5Z" fill="#263238"/>
<path d="M162.803 83.4414V86.4701H161.251V83.4414H162.803Z" fill="#263238"/>
<path d="M106.318 97.4258C110.104 97.4258 111.48 99.7604 111.48 103.281V105.893C111.48 109.679 109.726 111.61 105.915 111.61H102.911V121.516H101.334V97.4258H106.318ZM105.915 110.159C108.691 110.159 109.902 108.897 109.902 105.994V103.168C109.902 100.555 109.006 98.877 106.318 98.877H102.911V110.159H105.915Z" fill="#263238"/>
<path d="M115.72 116.177L114.458 121.515H113.007L118.269 97.3867H120.578L125.942 121.515H124.364L123.102 116.177H115.72ZM115.96 114.801H122.976L119.43 99.2165L115.96 114.801Z" fill="#263238"/>
<path d="M138.675 103.282V105.074H137.16V103.181C137.16 100.657 136.163 98.6378 133.513 98.6378C130.863 98.6378 129.866 100.606 129.866 103.181V115.712C129.866 118.236 130.863 120.217 133.513 120.217C136.163 120.217 137.16 118.286 137.16 115.712V110.513H133.917V109.074H138.624V115.611C138.624 119.081 137.11 121.693 133.425 121.693C129.74 121.693 128.239 119.081 128.239 115.611V103.282C128.239 99.8114 129.753 97.1992 133.425 97.1992C137.097 97.1992 138.675 99.8367 138.675 103.282Z" fill="#263238"/>
<path d="M149.489 108.581V110.02H142.915V120.115H150.827V121.567H141.325V97.4258H150.827V98.877H142.915V108.581H149.489Z" fill="#263238"/>
<path d="M160.191 121.516H158.74V97.4258H160.809L167.99 117.768V97.4258H169.428V121.516H167.674L160.102 100.063L160.191 121.516Z" fill="#263238"/>
<path d="M172.104 103.282C172.104 99.7736 173.719 97.1992 177.366 97.1992C181.013 97.1992 182.704 99.7231 182.704 103.282V115.611C182.704 119.119 181.076 121.693 177.366 121.693C173.656 121.693 172.104 119.17 172.104 115.611V103.282ZM173.681 115.712C173.681 118.324 174.716 120.255 177.366 120.255C180.016 120.255 181.152 118.324 181.152 115.712V103.181C181.152 100.569 180.092 98.6378 177.366 98.6378C174.64 98.6378 173.681 100.569 173.681 103.181V115.712Z" fill="#263238"/>
<path d="M189.443 121.516V98.877H184.559V97.4258H195.916V98.877H190.995V121.516H189.443Z" fill="#263238"/>
<path d="M210.996 109.162V110.6H204.762V121.516H203.185V97.4258H212.334V98.877H204.762V109.162H210.996Z" fill="#263238"/>
<path d="M214.681 103.282C214.681 99.7736 216.297 97.1992 219.944 97.1992C223.591 97.1992 225.282 99.7231 225.282 103.282V115.611C225.282 119.119 223.666 121.693 219.944 121.693C216.221 121.693 214.681 119.17 214.681 115.611V103.282ZM216.259 115.712C216.259 118.324 217.294 120.255 219.944 120.255C222.594 120.255 223.73 118.324 223.73 115.712V103.181C223.73 100.569 222.669 98.6378 219.944 98.6378C217.218 98.6378 216.259 100.569 216.259 103.181V115.712Z" fill="#263238"/>
<path d="M229.37 115.699C229.37 118.223 230.342 120.28 232.992 120.28C235.642 120.28 236.601 118.286 236.601 115.699V97.4258H238.078V115.636C238.078 119.068 236.639 121.718 232.954 121.718C229.269 121.718 227.793 119.068 227.793 115.636V97.4258H229.37V115.699Z" fill="#263238"/>
<path d="M242.242 121.516H240.803V97.4258H242.86L250.091 117.768V97.4258H251.543V121.516H249.776L242.204 100.063L242.242 121.516Z" fill="#263238"/>
<path d="M259.556 97.4258C263.279 97.4258 264.894 99.8739 264.894 103.42V115.522C264.894 119.068 263.279 121.516 259.556 121.516H254.256V97.4258H259.556ZM259.556 120.065C262.244 120.065 263.342 118.248 263.342 115.598V103.344C263.342 100.694 262.206 98.877 259.556 98.877H255.884V120.065H259.556Z" fill="#263238"/>
<path d="M339.613 344.476L356.788 303.93H367.073V344.476H371.528V353.044H367.073V363.935H357.81V353.044H339.613V344.476ZM357.785 344.476V321.938L348.27 344.476H357.785Z" fill="#263238"/>
<path d="M375.049 318.327C375.049 308.736 380.096 303.184 389.359 303.184C398.622 303.184 403.669 308.673 403.669 318.327V349.522C403.669 359.125 398.622 364.665 389.359 364.665C380.096 364.665 375.049 359.176 375.049 349.522V318.327ZM384.475 350.128C384.475 354.418 386.356 356.046 389.359 356.046C392.362 356.046 394.243 354.418 394.243 350.128V317.734C394.243 313.443 392.35 311.815 389.359 311.815C386.368 311.815 384.475 313.443 384.475 317.734V350.128Z" fill="#263238"/>
<path d="M407.531 344.476L424.668 303.93H434.953V344.476H439.408V353.044H434.953V363.935H425.69V353.044H407.531V344.476ZM425.69 344.476V321.938L416.188 344.476H425.69Z" fill="#263238"/>
</svg>
